<?xml version="1.0" encoding="UTF-8" standalone="no"?>
<!-- Created with Inkscape (http://www.inkscape.org/) -->

<svg
   xmlns:dc="http://purl.org/dc/elements/1.1/"
   xmlns:cc="http://creativecommons.org/ns#"
   xmlns:rdf="http://www.w3.org/1999/02/22-rdf-syntax-ns#"
   xmlns:svg="http://www.w3.org/2000/svg"
   xmlns="http://www.w3.org/2000/svg"
   xmlns:sodipodi="http://sodipodi.sourceforge.net/DTD/sodipodi-0.dtd"
   xmlns:inkscape="http://www.inkscape.org/namespaces/inkscape"
   width="744.09448819"
   height="1052.3622047"
   id="svg2"
   version="1.1"
   inkscape:version="0.48.4 r9939"
   sodipodi:docname="SnowflakeAcrylic2.dxf">
  <defs
     id="defs4" />
  <sodipodi:namedview
     id="base"
     pagecolor="#ffffff"
     bordercolor="#666666"
     borderopacity="1.0"
     inkscape:pageopacity="0.0"
     inkscape:pageshadow="2"
     inkscape:zoom="0.72293425"
     inkscape:cx="277.10833"
     inkscape:cy="431.19457"
     inkscape:document-units="px"
     inkscape:current-layer="layer1"
     showgrid="false"
     inkscape:snap-grids="false"
     inkscape:snap-to-guides="false"
     inkscape:object-nodes="true"
     inkscape:object-paths="true"
     inkscape:snap-intersection-paths="true"
     inkscape:snap-midpoints="true"
     inkscape:snap-object-midpoints="true"
     inkscape:window-width="1615"
     inkscape:window-height="1026"
     inkscape:window-x="65"
     inkscape:window-y="24"
     inkscape:window-maximized="1" />
  <metadata
     id="metadata7">
    <rdf:RDF>
      <cc:Work
         rdf:about="">
        <dc:format>image/svg+xml</dc:format>
        <dc:type
           rdf:resource="http://purl.org/dc/dcmitype/StillImage" />
        <dc:title></dc:title>
      </cc:Work>
    </rdf:RDF>
  </metadata>
  <g
     inkscape:label="Layer 1"
     inkscape:groupmode="layer"
     id="layer1">
    <path
       style="fill:none;stroke:#000000;stroke-width:0.10629921;stroke-linecap:butt;stroke-linejoin:miter;stroke-opacity:1;stroke-miterlimit:4;stroke-dasharray:none"
       d="m 104.07986,348.74794 72.98696,-33.68802 2.80718,-73.55216 -98.81309,-53.90082 51.65229,-72.9907 105.55036,52.77791 0,-80.289776 -96.56735,-55.023749 60.07387,-71.867783 97.69022,61.199888 103.86606,-65.130155 54.45951,72.990684 -104.98894,58.954031 2.24576,82.53564 121.83206,-58.95403 42.6693,87.02737 -108.35756,48.84763 1.68431,74.11363 67.93402,38.17977 79.16277,-34.81097 0.56142,-101.62551 97.12879,3.36881 0.56146,108.92459 81.40852,-42.67148 6.73725,-97.13379 96.56735,7.29907 -11.22877,105.55576 118.46343,48.84764 -45.47647,76.3595 -110.6033,-50.53203 -79.72423,42.67148 117.90202,65.13017 -63.4425,75.23658 -101.05887,-57.83111 -74.10981,40.42562 -2.24576,71.86778 72.98695,40.42561 99.37454,-49.97055 46.59935,77.48243 -101.62027,52.21643 79.16277,41.54853 96.0059,-43.7944 43.23068,79.7283 -110.04182,44.35587 10.66733,115.10074 -95.44447,2.80733 -3.93009,-109.48605 -84.21568,-39.86417 -3.93008,122.39981 -105.55036,-9.54494 7.86013,-107.24018 -78.03989,-37.05681 -71.30264,35.93387 -3.93006,72.9907 98.81311,52.77789 -51.09089,74.67508 -105.55035,-53.90081 1.12289,83.09711 93.76015,52.2164 -58.38956,70.7448 -96.00591,-58.9538 -107.23468,65.6915 -51.09086,-73.5521 104.42747,-59.5156 -0.56142,-84.7815 -125.2007,60.0771 -40.98498,-88.71193 108.35755,-45.4788 -2.24575,-76.92097 -72.42551,-38.74122 -74.10983,35.93389 -1.6843179,102.18697 -97.6902211,-2.24586 -1.122886,-107.80165 -79.724205,42.11001 -5.61439,95.44939 -98.25165,-5.61468 10.66732,-104.99432 -119.02487,-49.97056 44.91504,-77.48243 113.97193,52.77789 78.0399,-44.35588 -119.02487,-65.13016 66.24969,-76.35952 98.813104,60.07697 75.794134,-39.86415 1.684317,-72.42921 -73.548383,-40.42562 -99.936002,49.97052 -47.72223,-79.72828 106.67324,-49.97055 -81.96996,-42.11004 -97.69021,44.35589 -42.6693,-81.97415 109.48042,-42.11003 -10.66732,-118.46951 98.25165,-1.68441 3.36865,111.73192 84.215699,39.86416 3.368635,-125.76859 107.796106,10.1064 -10.66732,109.48605 z"
       id="path3945"
       inkscape:connector-curvature="0" />
    <path
       style="fill:none;stroke:#000000;stroke-width:0.10629921;stroke-miterlimit:10"
       d="m 39.910889,657.71746 c 0,2.92815 -2.373678,5.3019 -5.301773,5.3019 -2.928082,0 -5.301773,-2.37375 -5.301773,-5.3019 0,-2.92817 2.373691,-5.3019 5.301773,-5.3019 2.928095,0 5.301773,2.37373 5.301773,5.3019 z"
       id="circle4381-3"
       inkscape:connector-curvature="0" />
    <path
       transform="matrix(1.2468893,0,0,1.2469185,-89.55355,-452.56724)"
       style="fill:none;stroke:#000000;stroke-width:0.08525052;stroke-miterlimit:10"
       d="m 507.35301,776.75702 c 0,2.34831 -1.90368,4.252 -4.252,4.252 -2.34831,0 -4.252,-1.90369 -4.252,-4.252 0,-2.34832 1.90369,-4.252 4.252,-4.252 2.34832,0 4.252,1.90368 4.252,4.252 z"
       id="circle5605" />
    <path
       transform="matrix(1.2468893,0,0,1.2469185,-440.34025,-633.27554)"
       style="fill:none;stroke:#000000;stroke-width:0.08525052;stroke-miterlimit:10"
       d="m 507.35301,776.75702 c 0,2.34831 -1.90368,4.252 -4.252,4.252 -2.34831,0 -4.252,-1.90369 -4.252,-4.252 0,-2.34832 1.90369,-4.252 4.252,-4.252 2.34832,0 4.252,1.90368 4.252,4.252 z"
       id="circle5607" />
    <path
       transform="matrix(1.2468893,0,0,1.2469185,-217.11235,-169.10324)"
       style="fill:none;stroke:#000000;stroke-width:0.08525052;stroke-miterlimit:10"
       d="m 507.35301,776.75702 c 0,2.34831 -1.90368,4.252 -4.252,4.252 -2.34831,0 -4.252,-1.90369 -4.252,-4.252 0,-2.34832 1.90369,-4.252 4.252,-4.252 2.34832,0 4.252,1.90368 4.252,4.252 z"
       id="circle5609" />
    <path
       style="fill:none;stroke:#000000;stroke-width:0.10629921;stroke-miterlimit:10"
       d="m 904.47609,675.43396 c 0,2.92815 -2.37368,5.3019 -5.30177,5.3019 -2.92809,0 -5.30178,-2.37375 -5.30178,-5.3019 0,-2.92817 2.37369,-5.3019 5.30178,-5.3019 2.92809,0 5.30177,2.37373 5.30177,5.3019 z"
       id="circle6501"
       inkscape:connector-curvature="0" />
    <path
       transform="matrix(1.2468893,0,0,1.2469185,775.01165,-434.85074)"
       style="fill:none;stroke:#000000;stroke-width:0.08525052;stroke-miterlimit:10"
       d="m 507.35301,776.75702 c 0,2.34831 -1.90368,4.252 -4.252,4.252 -2.34831,0 -4.252,-1.90369 -4.252,-4.252 0,-2.34832 1.90369,-4.252 4.252,-4.252 2.34832,0 4.252,1.90368 4.252,4.252 z"
       id="circle6503" />
    <path
       transform="matrix(1.2468893,0,0,1.2469185,424.22495,-615.55904)"
       style="fill:none;stroke:#000000;stroke-width:0.08525052;stroke-miterlimit:10"
       d="m 507.35301,776.75702 c 0,2.34831 -1.90368,4.252 -4.252,4.252 -2.34831,0 -4.252,-1.90369 -4.252,-4.252 0,-2.34832 1.90369,-4.252 4.252,-4.252 2.34832,0 4.252,1.90368 4.252,4.252 z"
       id="circle6505" />
    <path
       transform="matrix(1.2468893,0,0,1.2469185,647.45285,-151.38674)"
       style="fill:none;stroke:#000000;stroke-width:0.08525052;stroke-miterlimit:10"
       d="m 507.35301,776.75702 c 0,2.34831 -1.90368,4.252 -4.252,4.252 -2.34831,0 -4.252,-1.90369 -4.252,-4.252 0,-2.34832 1.90369,-4.252 4.252,-4.252 2.34832,0 4.252,1.90368 4.252,4.252 z"
       id="circle6507" />
    <path
       style="fill:none;stroke:#f58220;stroke-width:0.21600001;stroke-miterlimit:2.61310005"
       d="m 949.21405,449.92917 196.56585,0 0,300.1969 -196.56585,0 z"
       id="rect6509" />
    <g
       id="g6511"
       transform="matrix(1.2468893,0,0,1.2469185,333.5922,-301.21474)">
      <g
         id="g6513">
        <path
           stroke-miterlimit="10"
           d="m 535.215,726.131 v -8.59 h 3.809 c 0.766,0 1.348,0.078 1.746,0.232 0.398,0.154 0.717,0.426 0.955,0.816 0.238,0.39 0.357,0.822 0.357,1.295 0,0.609 -0.197,1.123 -0.592,1.541 -0.395,0.418 -1.004,0.684 -1.828,0.797 0.301,0.145 0.529,0.287 0.686,0.428 0.332,0.305 0.646,0.686 0.943,1.143 l 1.494,2.338 h -1.43 l -1.137,-1.787 c -0.332,-0.516 -0.605,-0.91 -0.82,-1.184 -0.215,-0.274 -0.407,-0.465 -0.577,-0.574 -0.17,-0.109 -0.343,-0.186 -0.519,-0.229 -0.129,-0.027 -0.34,-0.041 -0.633,-0.041 h -1.318 v 3.814 h -1.136 z m 1.137,-4.799 h 2.443 c 0.52,0 0.926,-0.053 1.219,-0.16 0.293,-0.107 0.516,-0.279 0.668,-0.516 0.152,-0.237 0.229,-0.494 0.229,-0.771 0,-0.406 -0.147,-0.74 -0.442,-1.002 -0.295,-0.262 -0.761,-0.393 -1.397,-0.393 h -2.719 v 2.842 z"
           id="path6515"
           inkscape:connector-curvature="0"
           style="fill:none;stroke:#745aa6;stroke-width:0.02269622;stroke-miterlimit:10" />
        <path
           stroke-miterlimit="10"
           d="m 548.39,725.363 c -0.391,0.332 -0.768,0.566 -1.129,0.703 -0.361,0.137 -0.748,0.205 -1.162,0.205 -0.684,0 -1.209,-0.166 -1.576,-0.5 -0.367,-0.334 -0.551,-0.762 -0.551,-1.281 0,-0.305 0.068,-0.582 0.207,-0.834 0.139,-0.252 0.32,-0.455 0.545,-0.607 0.225,-0.152 0.479,-0.268 0.76,-0.346 0.207,-0.055 0.52,-0.107 0.938,-0.158 0.852,-0.102 1.479,-0.223 1.881,-0.363 0.004,-0.145 0.006,-0.236 0.006,-0.275 0,-0.43 -0.1,-0.732 -0.299,-0.908 -0.27,-0.238 -0.67,-0.357 -1.201,-0.357 -0.496,0 -0.863,0.088 -1.1,0.262 -0.237,0.174 -0.41,0.48 -0.523,0.922 l -1.031,-0.141 c 0.094,-0.441 0.248,-0.797 0.463,-1.068 0.215,-0.271 0.525,-0.48 0.932,-0.627 0.407,-0.147 0.877,-0.221 1.412,-0.221 0.531,0 0.963,0.062 1.295,0.188 0.332,0.126 0.576,0.283 0.732,0.473 0.156,0.19 0.266,0.428 0.328,0.717 0.035,0.18 0.053,0.504 0.053,0.973 v 1.406 c 0,0.98 0.021,1.602 0.066,1.861 0.045,0.259 0.135,0.508 0.268,0.746 h -1.102 c -0.111,-0.221 -0.181,-0.477 -0.212,-0.77 z m -0.088,-2.355 c -0.383,0.156 -0.957,0.289 -1.723,0.398 -0.434,0.062 -0.74,0.133 -0.92,0.211 -0.18,0.078 -0.318,0.193 -0.416,0.344 -0.098,0.151 -0.146,0.316 -0.146,0.5 0,0.281 0.105,0.516 0.318,0.703 0.213,0.187 0.525,0.281 0.936,0.281 0.406,0 0.768,-0.088 1.084,-0.266 0.316,-0.178 0.549,-0.422 0.697,-0.73 0.113,-0.238 0.17,-0.59 0.17,-1.055 v -0.386 z"
           id="path6517"
           inkscape:connector-curvature="0"
           style="fill:none;stroke:#745aa6;stroke-width:0.02269622;stroke-miterlimit:10" />
        <path
           stroke-miterlimit="10"
           d="m 551.181,724.273 1.043,-0.164 c 0.059,0.418 0.222,0.738 0.489,0.961 0.267,0.223 0.642,0.334 1.122,0.334 0.484,0 0.844,-0.098 1.078,-0.295 0.234,-0.197 0.352,-0.43 0.352,-0.695 0,-0.238 -0.104,-0.426 -0.311,-0.562 -0.145,-0.094 -0.504,-0.213 -1.078,-0.357 -0.773,-0.195 -1.31,-0.363 -1.608,-0.506 -0.298,-0.143 -0.525,-0.34 -0.68,-0.592 -0.155,-0.252 -0.231,-0.531 -0.231,-0.836 0,-0.277 0.063,-0.533 0.19,-0.77 0.127,-0.237 0.3,-0.434 0.519,-0.59 0.164,-0.121 0.388,-0.223 0.671,-0.307 0.283,-0.084 0.587,-0.127 0.911,-0.127 0.488,0 0.917,0.07 1.286,0.211 0.369,0.141 0.642,0.332 0.817,0.572 0.175,0.24 0.297,0.561 0.363,0.963 l -1.031,0.141 c -0.047,-0.32 -0.183,-0.57 -0.407,-0.75 -0.224,-0.18 -0.542,-0.27 -0.952,-0.27 -0.484,0 -0.83,0.08 -1.037,0.24 -0.207,0.16 -0.311,0.348 -0.311,0.562 0,0.137 0.043,0.26 0.129,0.369 0.086,0.113 0.221,0.207 0.404,0.281 0.105,0.039 0.416,0.129 0.932,0.27 0.746,0.199 1.267,0.363 1.562,0.49 0.295,0.127 0.526,0.311 0.694,0.553 0.168,0.242 0.252,0.543 0.252,0.902 0,0.352 -0.103,0.684 -0.308,0.994 -0.205,0.31 -0.501,0.551 -0.888,0.721 -0.387,0.17 -0.824,0.254 -1.312,0.254 -0.809,0 -1.425,-0.168 -1.849,-0.504 -0.424,-0.336 -0.694,-0.832 -0.811,-1.493 z"
           id="path6519"
           inkscape:connector-curvature="0"
           style="fill:none;stroke:#745aa6;stroke-width:0.02269622;stroke-miterlimit:10" />
        <path
           stroke-miterlimit="10"
           d="m 558.202,728.516 v -8.607 h 0.961 v 0.809 c 0.227,-0.316 0.482,-0.553 0.768,-0.711 0.286,-0.158 0.631,-0.238 1.037,-0.238 0.531,0 1,0.137 1.406,0.41 0.406,0.273 0.713,0.66 0.92,1.158 0.207,0.498 0.311,1.043 0.311,1.637 0,0.637 -0.114,1.211 -0.343,1.721 -0.229,0.51 -0.561,0.9 -0.996,1.172 -0.435,0.272 -0.894,0.406 -1.374,0.406 -0.352,0 -0.667,-0.074 -0.946,-0.223 -0.279,-0.149 -0.509,-0.336 -0.688,-0.562 v 3.029 h -1.056 z m 0.955,-5.461 c 0,0.801 0.162,1.393 0.486,1.775 0.324,0.382 0.717,0.574 1.178,0.574 0.469,0 0.87,-0.197 1.204,-0.594 0.334,-0.397 0.501,-1.012 0.501,-1.844 0,-0.793 -0.163,-1.387 -0.489,-1.781 -0.326,-0.394 -0.716,-0.592 -1.169,-0.592 -0.449,0 -0.847,0.211 -1.192,0.631 -0.345,0.42 -0.519,1.03 -0.519,1.831 z"
           id="path6521"
           inkscape:connector-curvature="0"
           style="fill:none;stroke:#745aa6;stroke-width:0.02269622;stroke-miterlimit:10" />
        <path
           stroke-miterlimit="10"
           d="m 566.448,726.131 h -0.979 v -8.59 h 1.055 v 3.064 c 0.445,-0.559 1.014,-0.838 1.705,-0.838 0.383,0 0.746,0.078 1.088,0.232 0.342,0.154 0.623,0.371 0.844,0.65 0.221,0.279 0.393,0.615 0.518,1.01 0.125,0.395 0.188,0.816 0.188,1.266 0,1.066 -0.264,1.891 -0.791,2.473 -0.527,0.582 -1.16,0.873 -1.898,0.873 -0.734,0 -1.311,-0.307 -1.729,-0.92 v 0.78 z m -0.011,-3.158 c 0,0.746 0.102,1.285 0.305,1.617 0.332,0.543 0.781,0.814 1.348,0.814 0.461,0 0.859,-0.199 1.195,-0.6 0.336,-0.401 0.504,-0.998 0.504,-1.791 0,-0.812 -0.16,-1.412 -0.482,-1.799 -0.322,-0.387 -0.713,-0.58 -1.17,-0.58 -0.461,0 -0.859,0.201 -1.195,0.602 -0.336,0.401 -0.505,0.979 -0.505,1.737 z"
           id="path6523"
           inkscape:connector-curvature="0"
           style="fill:none;stroke:#745aa6;stroke-width:0.02269622;stroke-miterlimit:10" />
        <path
           stroke-miterlimit="10"
           d="m 577.01,724.127 1.09,0.135 c -0.172,0.637 -0.49,1.131 -0.955,1.482 -0.465,0.351 -1.059,0.527 -1.781,0.527 -0.91,0 -1.632,-0.279 -2.165,-0.84 -0.533,-0.561 -0.8,-1.348 -0.8,-2.359 0,-1.047 0.27,-1.859 0.809,-2.438 0.539,-0.579 1.238,-0.867 2.098,-0.867 0.832,0 1.512,0.283 2.039,0.85 0.527,0.567 0.791,1.363 0.791,2.391 0,0.062 -0.002,0.156 -0.006,0.281 h -4.641 c 0.039,0.684 0.232,1.207 0.58,1.57 0.348,0.363 0.781,0.545 1.301,0.545 0.387,0 0.717,-0.102 0.99,-0.305 0.273,-0.203 0.49,-0.527 0.65,-0.972 z m -3.463,-1.705 h 3.475 c -0.047,-0.523 -0.18,-0.916 -0.398,-1.178 -0.336,-0.406 -0.771,-0.609 -1.307,-0.609 -0.484,0 -0.892,0.162 -1.222,0.486 -0.33,0.324 -0.513,0.758 -0.548,1.301 z"
           id="path6525"
           inkscape:connector-curvature="0"
           style="fill:none;stroke:#745aa6;stroke-width:0.02269622;stroke-miterlimit:10" />
        <path
           stroke-miterlimit="10"
           d="m 580.013,726.131 v -6.223 h 0.949 v 0.943 c 0.242,-0.441 0.465,-0.732 0.67,-0.873 0.205,-0.141 0.432,-0.211 0.678,-0.211 0.355,0 0.717,0.113 1.084,0.34 l -0.363,0.979 c -0.258,-0.152 -0.516,-0.229 -0.773,-0.229 -0.23,0 -0.438,0.07 -0.621,0.209 -0.183,0.139 -0.314,0.33 -0.393,0.576 -0.117,0.375 -0.176,0.785 -0.176,1.23 v 3.258 h -1.055 z"
           id="path6527"
           inkscape:connector-curvature="0"
           style="fill:none;stroke:#745aa6;stroke-width:0.02269622;stroke-miterlimit:10" />
        <path
           stroke-miterlimit="10"
           d="m 584.608,726.131 v -6.223 h 0.949 v 0.943 c 0.242,-0.441 0.466,-0.732 0.671,-0.873 0.205,-0.141 0.431,-0.211 0.677,-0.211 0.355,0 0.717,0.113 1.084,0.34 l -0.363,0.979 c -0.258,-0.152 -0.516,-0.229 -0.773,-0.229 -0.23,0 -0.438,0.07 -0.621,0.209 -0.183,0.139 -0.314,0.33 -0.393,0.576 -0.117,0.375 -0.176,0.785 -0.176,1.23 v 3.258 h -1.055 z"
           id="path6529"
           inkscape:connector-curvature="0"
           style="fill:none;stroke:#745aa6;stroke-width:0.02269622;stroke-miterlimit:10" />
        <path
           stroke-miterlimit="10"
           d="m 589.169,728.527 -0.117,-0.99 c 0.23,0.062 0.432,0.094 0.604,0.094 0.234,0 0.422,-0.039 0.562,-0.117 0.14,-0.078 0.256,-0.188 0.346,-0.328 0.066,-0.105 0.174,-0.367 0.322,-0.785 0.02,-0.059 0.051,-0.145 0.094,-0.258 l -2.361,-6.234 h 1.137 l 1.295,3.604 c 0.168,0.457 0.318,0.938 0.451,1.441 0.121,-0.484 0.266,-0.957 0.434,-1.418 l 1.33,-3.627 h 1.055 l -2.367,6.328 c -0.254,0.684 -0.451,1.154 -0.592,1.412 -0.188,0.348 -0.402,0.604 -0.645,0.766 -0.243,0.162 -0.531,0.242 -0.867,0.242 -0.204,-0.001 -0.431,-0.044 -0.681,-0.13 z"
           id="path6531"
           inkscape:connector-curvature="0"
           style="fill:none;stroke:#745aa6;stroke-width:0.02269622;stroke-miterlimit:10" />
        <path
           stroke-miterlimit="10"
           d="m 599.885,726.131 v -8.59 h 3.24 c 0.57,0 1.006,0.027 1.307,0.082 0.422,0.07 0.775,0.205 1.061,0.402 0.286,0.197 0.515,0.473 0.688,0.828 0.173,0.355 0.261,0.746 0.261,1.172 0,0.73 -0.232,1.35 -0.697,1.855 -0.465,0.505 -1.305,0.758 -2.52,0.758 h -2.203 v 3.492 h -1.137 z m 1.136,-4.506 h 2.221 c 0.734,0 1.256,-0.137 1.564,-0.41 0.308,-0.273 0.463,-0.658 0.463,-1.154 0,-0.359 -0.091,-0.666 -0.272,-0.922 -0.181,-0.256 -0.421,-0.426 -0.718,-0.508 -0.191,-0.051 -0.545,-0.076 -1.061,-0.076 h -2.197 v 3.07 z"
           id="path6533"
           inkscape:connector-curvature="0"
           style="fill:none;stroke:#745aa6;stroke-width:0.02269622;stroke-miterlimit:10" />
        <path
           stroke-miterlimit="10"
           d="m 608.36,718.754 v -1.213 h 1.055 v 1.213 h -1.055 z m 0,7.377 v -6.223 h 1.055 v 6.223 h -1.055 z"
           id="path6535"
           inkscape:connector-curvature="0"
           style="fill:none;stroke:#745aa6;stroke-width:0.02269622;stroke-miterlimit:10" />
      </g>
    </g>
    <path
       transform="matrix(1.2468893,0,0,1.2469185,333.5922,-301.21474)"
       style="fill:none;stroke:#000000;stroke-width:0.08525052;stroke-miterlimit:10"
       d="m 507.35301,612.34601 c 0,2.34831 -1.90368,4.252 -4.252,4.252 -2.34831,0 -4.252,-1.90369 -4.252,-4.252 0,-2.34832 1.90369,-4.252 4.252,-4.252 2.34832,0 4.252,1.90368 4.252,4.252 z"
       id="circle6537" />
    <path
       transform="matrix(1.2468893,0,0,1.2469185,333.5922,-301.21474)"
       style="fill:none;stroke:#000000;stroke-width:0.08525052;stroke-miterlimit:10"
       d="m 646.25102,612.34601 c 0,2.34831 -1.90368,4.252 -4.252,4.252 -2.34831,0 -4.252,-1.90369 -4.252,-4.252 0,-2.34832 1.90369,-4.252 4.252,-4.252 2.34832,0 4.252,1.90368 4.252,4.252 z"
       id="circle6539" />
    <path
       transform="matrix(1.2468893,0,0,1.2469185,333.5922,-301.21474)"
       style="fill:none;stroke:#000000;stroke-width:0.08525052;stroke-miterlimit:10"
       d="m 507.35301,776.75702 c 0,2.34831 -1.90368,4.252 -4.252,4.252 -2.34831,0 -4.252,-1.90369 -4.252,-4.252 0,-2.34832 1.90369,-4.252 4.252,-4.252 2.34832,0 4.252,1.90368 4.252,4.252 z"
       id="circle6541" />
    <path
       transform="matrix(1.2468893,0,0,1.2469185,333.5922,-301.21474)"
       style="fill:none;stroke:#000000;stroke-width:0.08525052;stroke-miterlimit:10"
       d="m 646.25102,776.75702 c 0,2.34831 -1.90368,4.252 -4.252,4.252 -2.34831,0 -4.252,-1.90369 -4.252,-4.252 0,-2.34832 1.90369,-4.252 4.252,-4.252 2.34832,0 4.252,1.90368 4.252,4.252 z"
       id="circle6543" />
    <path
       transform="matrix(1.2468893,0,0,1.2469185,233.97818,-292.33512)"
       style="fill:none;stroke:#f58220;stroke-width:0.17322907;stroke-miterlimit:2.61310005"
       d="m 733.598,595.591 170.078,0 0,237.598 -170.078,0 0,0 z"
       id="polygon6545" />
    <path
       style="fill:none;stroke:#f58220;stroke-width:0.21600001;stroke-miterlimit:2.61310005"
       d="m 1317.2041,746.58344 0,-296.26493"
       id="line6547" />
    <g
       id="g6549"
       transform="matrix(1.2468893,0,0,1.2469185,233.97818,-292.33512)">
      <path
         stroke-miterlimit="10"
         d="m 785.159,718.689 v -8.59 h 3.223 c 0.656,0 1.183,0.087 1.579,0.261 0.396,0.174 0.707,0.441 0.932,0.803 0.225,0.362 0.337,0.739 0.337,1.134 0,0.367 -0.1,0.713 -0.299,1.037 -0.199,0.324 -0.5,0.586 -0.902,0.785 0.52,0.152 0.919,0.412 1.198,0.779 0.279,0.367 0.419,0.801 0.419,1.301 0,0.402 -0.085,0.777 -0.255,1.123 -0.17,0.346 -0.38,0.611 -0.63,0.799 -0.25,0.188 -0.563,0.33 -0.94,0.426 -0.377,0.096 -0.839,0.143 -1.386,0.143 h -3.276 z m 1.137,-1.013 h 2.139 c 0.367,0 0.625,-0.014 0.773,-0.041 0.262,-0.047 0.48,-0.125 0.656,-0.234 0.176,-0.109 0.32,-0.268 0.434,-0.477 0.114,-0.209 0.17,-0.451 0.17,-0.725 0,-0.32 -0.082,-0.599 -0.246,-0.835 -0.164,-0.236 -0.392,-0.402 -0.683,-0.498 -0.291,-0.096 -0.71,-0.144 -1.257,-0.144 h -1.986 v 2.954 z m 0,-3.967 h 1.857 c 0.504,0 0.865,-0.033 1.084,-0.1 0.289,-0.086 0.507,-0.229 0.653,-0.428 0.146,-0.199 0.22,-0.449 0.22,-0.75 0,-0.285 -0.068,-0.536 -0.205,-0.753 -0.137,-0.217 -0.332,-0.365 -0.586,-0.445 -0.254,-0.08 -0.689,-0.12 -1.307,-0.12 h -1.717 v 2.596 z"
         id="path6551"
         inkscape:connector-curvature="0"
         style="fill:none;stroke:#745aa6;stroke-width:0.02269622;stroke-miterlimit:10" />
      <path
         stroke-miterlimit="10"
         d="m 793.664,718.689 v -6.223 h 0.949 v 0.943 c 0.242,-0.441 0.465,-0.732 0.67,-0.873 0.205,-0.141 0.432,-0.211 0.678,-0.211 0.355,0 0.717,0.113 1.084,0.34 l -0.363,0.979 c -0.258,-0.152 -0.516,-0.229 -0.773,-0.229 -0.23,0 -0.438,0.069 -0.621,0.208 -0.183,0.139 -0.314,0.331 -0.393,0.577 -0.117,0.375 -0.176,0.785 -0.176,1.23 v 3.258 h -1.055 z"
         id="path6553"
         inkscape:connector-curvature="0"
         style="fill:none;stroke:#745aa6;stroke-width:0.02269622;stroke-miterlimit:10" />
      <path
         stroke-miterlimit="10"
         d="m 802.531,716.686 1.09,0.135 c -0.172,0.637 -0.49,1.131 -0.955,1.482 -0.465,0.351 -1.059,0.527 -1.781,0.527 -0.91,0 -1.632,-0.279 -2.165,-0.84 -0.533,-0.561 -0.8,-1.348 -0.8,-2.359 0,-1.047 0.27,-1.859 0.809,-2.438 0.539,-0.579 1.238,-0.867 2.098,-0.867 0.832,0 1.512,0.283 2.039,0.85 0.527,0.567 0.791,1.363 0.791,2.391 0,0.062 -0.002,0.156 -0.006,0.281 h -4.641 c 0.039,0.684 0.232,1.207 0.58,1.57 0.348,0.363 0.781,0.545 1.301,0.545 0.387,0 0.717,-0.102 0.99,-0.305 0.273,-0.203 0.49,-0.527 0.65,-0.972 z m -3.463,-1.706 h 3.475 c -0.047,-0.523 -0.18,-0.916 -0.398,-1.178 -0.336,-0.406 -0.771,-0.609 -1.307,-0.609 -0.484,0 -0.892,0.162 -1.222,0.486 -0.33,0.324 -0.512,0.759 -0.548,1.301 z"
         id="path6555"
         inkscape:connector-curvature="0"
         style="fill:none;stroke:#745aa6;stroke-width:0.02269622;stroke-miterlimit:10" />
      <path
         stroke-miterlimit="10"
         d="m 809.605,717.922 c -0.391,0.332 -0.767,0.566 -1.128,0.703 -0.361,0.137 -0.749,0.205 -1.163,0.205 -0.684,0 -1.209,-0.166 -1.576,-0.5 -0.367,-0.334 -0.551,-0.762 -0.551,-1.281 0,-0.305 0.069,-0.582 0.208,-0.834 0.139,-0.252 0.32,-0.455 0.545,-0.607 0.225,-0.152 0.478,-0.268 0.759,-0.346 0.207,-0.055 0.52,-0.107 0.938,-0.158 0.852,-0.102 1.479,-0.223 1.881,-0.363 0.004,-0.145 0.006,-0.236 0.006,-0.275 0,-0.43 -0.1,-0.732 -0.299,-0.908 -0.27,-0.238 -0.67,-0.357 -1.201,-0.357 -0.496,0 -0.862,0.087 -1.099,0.261 -0.237,0.174 -0.411,0.481 -0.524,0.923 l -1.031,-0.141 c 0.094,-0.441 0.248,-0.798 0.463,-1.069 0.215,-0.271 0.525,-0.48 0.932,-0.627 0.407,-0.147 0.877,-0.22 1.412,-0.22 0.531,0 0.963,0.062 1.295,0.188 0.332,0.126 0.576,0.282 0.732,0.472 0.156,0.19 0.266,0.429 0.328,0.718 0.035,0.18 0.053,0.504 0.053,0.973 v 1.406 c 0,0.98 0.022,1.602 0.067,1.861 0.045,0.259 0.134,0.508 0.267,0.746 h -1.102 c -0.11,-0.221 -0.18,-0.477 -0.212,-0.77 z m -0.087,-2.356 c -0.383,0.156 -0.957,0.289 -1.723,0.398 -0.434,0.062 -0.74,0.133 -0.92,0.211 -0.18,0.078 -0.318,0.193 -0.416,0.344 -0.098,0.151 -0.146,0.316 -0.146,0.5 0,0.281 0.106,0.516 0.319,0.703 0.213,0.187 0.524,0.281 0.935,0.281 0.406,0 0.768,-0.088 1.084,-0.266 0.316,-0.178 0.549,-0.422 0.697,-0.73 0.113,-0.238 0.17,-0.59 0.17,-1.055 v -0.386 z"
         id="path6557"
         inkscape:connector-curvature="0"
         style="fill:none;stroke:#745aa6;stroke-width:0.02269622;stroke-miterlimit:10" />
      <path
         stroke-miterlimit="10"
         d="m 816.856,718.689 v -0.785 c -0.395,0.617 -0.975,0.926 -1.74,0.926 -0.496,0 -0.952,-0.137 -1.368,-0.41 -0.416,-0.273 -0.738,-0.654 -0.967,-1.145 -0.229,-0.491 -0.343,-1.055 -0.343,-1.691 0,-0.621 0.104,-1.185 0.311,-1.69 0.207,-0.505 0.518,-0.894 0.932,-1.163 0.414,-0.269 0.877,-0.404 1.389,-0.404 0.375,0 0.709,0.079 1.002,0.237 0.293,0.158 0.531,0.364 0.715,0.618 V 710.1 h 1.049 v 8.59 h -0.98 z m -3.334,-3.105 c 0,0.797 0.168,1.393 0.504,1.787 0.336,0.394 0.732,0.592 1.189,0.592 0.461,0 0.853,-0.188 1.175,-0.564 0.322,-0.376 0.483,-0.953 0.483,-1.727 0,-0.852 -0.164,-1.477 -0.492,-1.875 -0.328,-0.398 -0.732,-0.598 -1.213,-0.598 -0.469,0 -0.86,0.191 -1.175,0.574 -0.315,0.383 -0.471,0.987 -0.471,1.811 z"
         id="path6559"
         inkscape:connector-curvature="0"
         style="fill:none;stroke:#745aa6;stroke-width:0.02269622;stroke-miterlimit:10" />
      <path
         stroke-miterlimit="10"
         d="m 821.065,718.689 h -0.979 v -8.59 h 1.055 v 3.064 c 0.445,-0.559 1.014,-0.838 1.705,-0.838 0.383,0 0.745,0.077 1.087,0.231 0.342,0.154 0.623,0.371 0.844,0.65 0.221,0.279 0.394,0.616 0.519,1.011 0.125,0.395 0.188,0.816 0.188,1.266 0,1.066 -0.264,1.891 -0.791,2.473 -0.527,0.582 -1.16,0.873 -1.898,0.873 -0.734,0 -1.311,-0.307 -1.729,-0.92 v 0.78 z m -0.011,-3.158 c 0,0.746 0.102,1.285 0.305,1.617 0.332,0.543 0.781,0.814 1.348,0.814 0.461,0 0.859,-0.199 1.195,-0.6 0.336,-0.401 0.504,-0.998 0.504,-1.791 0,-0.812 -0.161,-1.412 -0.483,-1.799 -0.322,-0.387 -0.712,-0.58 -1.169,-0.58 -0.461,0 -0.859,0.2 -1.195,0.601 -0.336,0.401 -0.505,0.98 -0.505,1.738 z"
         id="path6561"
         inkscape:connector-curvature="0"
         style="fill:none;stroke:#745aa6;stroke-width:0.02269622;stroke-miterlimit:10" />
      <path
         stroke-miterlimit="10"
         d="m 826.975,715.578 c 0,-1.152 0.32,-2.006 0.961,-2.561 0.535,-0.461 1.188,-0.691 1.957,-0.691 0.855,0 1.555,0.28 2.098,0.841 0.543,0.561 0.814,1.335 0.814,2.323 0,0.801 -0.12,1.432 -0.36,1.891 -0.24,0.459 -0.59,0.814 -1.049,1.068 -0.459,0.254 -0.96,0.381 -1.503,0.381 -0.871,0 -1.575,-0.279 -2.112,-0.838 -0.537,-0.559 -0.806,-1.363 -0.806,-2.414 z m 1.084,0 c 0,0.797 0.174,1.395 0.521,1.791 0.347,0.396 0.785,0.594 1.312,0.594 0.523,0 0.959,-0.199 1.307,-0.598 0.348,-0.399 0.521,-1.006 0.521,-1.822 0,-0.77 -0.175,-1.353 -0.524,-1.749 -0.349,-0.396 -0.784,-0.595 -1.304,-0.595 -0.527,0 -0.965,0.197 -1.312,0.592 -0.347,0.395 -0.521,0.99 -0.521,1.787 z"
         id="path6563"
         inkscape:connector-curvature="0"
         style="fill:none;stroke:#745aa6;stroke-width:0.02269622;stroke-miterlimit:10" />
      <path
         stroke-miterlimit="10"
         d="m 838.701,717.922 c -0.391,0.332 -0.767,0.566 -1.128,0.703 -0.361,0.137 -0.749,0.205 -1.163,0.205 -0.684,0 -1.209,-0.166 -1.576,-0.5 -0.367,-0.334 -0.551,-0.762 -0.551,-1.281 0,-0.305 0.069,-0.582 0.208,-0.834 0.139,-0.252 0.32,-0.455 0.545,-0.607 0.225,-0.152 0.478,-0.268 0.759,-0.346 0.207,-0.055 0.52,-0.107 0.938,-0.158 0.852,-0.102 1.479,-0.223 1.881,-0.363 0.004,-0.145 0.006,-0.236 0.006,-0.275 0,-0.43 -0.1,-0.732 -0.299,-0.908 -0.27,-0.238 -0.67,-0.357 -1.201,-0.357 -0.496,0 -0.862,0.087 -1.099,0.261 -0.237,0.174 -0.411,0.481 -0.524,0.923 l -1.031,-0.141 c 0.094,-0.441 0.248,-0.798 0.463,-1.069 0.215,-0.271 0.525,-0.48 0.932,-0.627 0.407,-0.147 0.877,-0.22 1.412,-0.22 0.531,0 0.963,0.062 1.295,0.188 0.332,0.126 0.576,0.282 0.732,0.472 0.156,0.19 0.266,0.429 0.328,0.718 0.035,0.18 0.053,0.504 0.053,0.973 v 1.406 c 0,0.98 0.022,1.602 0.067,1.861 0.045,0.259 0.134,0.508 0.267,0.746 h -1.102 c -0.11,-0.221 -0.181,-0.477 -0.212,-0.77 z m -0.088,-2.356 c -0.383,0.156 -0.957,0.289 -1.723,0.398 -0.434,0.062 -0.74,0.133 -0.92,0.211 -0.18,0.078 -0.318,0.193 -0.416,0.344 -0.098,0.151 -0.146,0.316 -0.146,0.5 0,0.281 0.106,0.516 0.319,0.703 0.213,0.187 0.524,0.281 0.935,0.281 0.406,0 0.768,-0.088 1.084,-0.266 0.316,-0.178 0.549,-0.422 0.697,-0.73 0.113,-0.238 0.17,-0.59 0.17,-1.055 v -0.386 z"
         id="path6565"
         inkscape:connector-curvature="0"
         style="fill:none;stroke:#745aa6;stroke-width:0.02269622;stroke-miterlimit:10" />
      <path
         stroke-miterlimit="10"
         d="m 841.902,718.689 v -6.223 h 0.949 v 0.943 c 0.242,-0.441 0.466,-0.732 0.671,-0.873 0.205,-0.141 0.431,-0.211 0.677,-0.211 0.355,0 0.717,0.113 1.084,0.34 l -0.363,0.979 c -0.258,-0.152 -0.516,-0.229 -0.773,-0.229 -0.23,0 -0.438,0.069 -0.621,0.208 -0.183,0.139 -0.314,0.331 -0.393,0.577 -0.117,0.375 -0.176,0.785 -0.176,1.23 v 3.258 h -1.055 z"
         id="path6567"
         inkscape:connector-curvature="0"
         style="fill:none;stroke:#745aa6;stroke-width:0.02269622;stroke-miterlimit:10" />
      <path
         stroke-miterlimit="10"
         d="m 850.548,718.689 v -0.785 c -0.395,0.617 -0.975,0.926 -1.74,0.926 -0.496,0 -0.952,-0.137 -1.368,-0.41 -0.416,-0.273 -0.738,-0.654 -0.967,-1.145 -0.229,-0.491 -0.343,-1.055 -0.343,-1.691 0,-0.621 0.104,-1.185 0.311,-1.69 0.207,-0.505 0.518,-0.894 0.932,-1.163 0.414,-0.269 0.877,-0.404 1.389,-0.404 0.375,0 0.709,0.079 1.002,0.237 0.293,0.158 0.531,0.364 0.715,0.618 V 710.1 h 1.049 v 8.59 h -0.98 z m -3.334,-3.105 c 0,0.797 0.168,1.393 0.504,1.787 0.336,0.394 0.732,0.592 1.189,0.592 0.461,0 0.853,-0.188 1.175,-0.564 0.322,-0.376 0.483,-0.953 0.483,-1.727 0,-0.852 -0.164,-1.477 -0.492,-1.875 -0.328,-0.398 -0.732,-0.598 -1.213,-0.598 -0.469,0 -0.86,0.191 -1.175,0.574 -0.315,0.383 -0.471,0.987 -0.471,1.811 z"
         id="path6569"
         inkscape:connector-curvature="0"
         style="fill:none;stroke:#745aa6;stroke-width:0.02269622;stroke-miterlimit:10" />
    </g>
    <path
       transform="matrix(1.083235,0,0,1.1060666,577.69216,-327.04044)"
       style="fill:none;stroke:#000000;stroke-width:0.09711315;stroke-miterlimit:4;stroke-opacity:1"
       d="m 783.51347,832.76758 c 0,138.09605 -114.30855,250.04502 -255.31529,250.04502 -141.00674,0 -255.31529,-111.94897 -255.31529,-250.04502 0,-138.09606 114.30855,-250.04503 255.31529,-250.04503 141.00674,0 255.31529,111.94897 255.31529,250.04503 z"
       id="path6571" />
    <path
       transform="matrix(0.96168488,0,0,0.964151,870.61886,12.404309)"
       style="fill:none;stroke:#820000;stroke-width:0.11039289;stroke-miterlimit:4;stroke-opacity:1"
       d="m 300.99096,354.05142 c 0,14.71516 -3.80155,26.64414 -8.49099,26.64414 -4.68945,0 -8.49099,-11.92898 -8.49099,-26.64414 0,-14.71515 3.80154,-26.64414 8.49099,-26.64414 4.68944,0 8.49099,11.92899 8.49099,26.64414 z"
       id="path6573" />
    <path
       style="fill:none;stroke:#000000;stroke-width:0.10629921;stroke-miterlimit:4;stroke-opacity:1"
       inkscape:transform-center-x="-8.6476013"
       inkscape:transform-center-y="-105.13357"
       d="m 292.43736,563.43112 c 0,4.74026 -3.84261,8.58301 -8.58274,8.58301 -4.74011,0 -8.58274,-3.84275 -8.58274,-8.58301 0,-4.74026 3.84263,-8.58302 8.58274,-8.58302 4.74013,0 8.58274,3.84276 8.58274,8.58302 z"
       id="path6577"
       inkscape:connector-curvature="0" />
    <path
       style="fill:none;stroke:#000000;stroke-width:0.10629921;stroke-miterlimit:4;stroke-opacity:1"
       inkscape:transform-center-x="-8.6476013"
       inkscape:transform-center-y="-105.13357"
       d="m 292.43736,350.83312 c 0,4.74025 -3.84261,8.58301 -8.58274,8.58301 -4.74011,0 -8.58274,-3.84276 -8.58274,-8.58301 0,-4.74027 3.84263,-8.58302 8.58274,-8.58302 4.74013,0 8.58274,3.84275 8.58274,8.58302 z"
       id="path6583"
       inkscape:connector-curvature="0" />
    <path
       style="fill:none;stroke:#000000;stroke-width:0.10629921;stroke-miterlimit:4;stroke-opacity:1"
       inkscape:transform-center-x="-8.6476013"
       inkscape:transform-center-y="-105.13357"
       d="m 292.43736,492.56512 c 0,4.74026 -3.84261,8.58301 -8.58274,8.58301 -4.74011,0 -8.58274,-3.84275 -8.58274,-8.58301 0,-4.74027 3.84263,-8.58302 8.58274,-8.58302 4.74013,0 8.58274,3.84275 8.58274,8.58302 z"
       id="path6585"
       inkscape:connector-curvature="0" />
    <path
       style="fill:none;stroke:#000000;stroke-width:0.10629921;stroke-miterlimit:4;stroke-opacity:1"
       inkscape:transform-center-x="-8.6476013"
       inkscape:transform-center-y="-105.13357"
       d="m 292.43736,209.10112 c 0,4.74025 -3.84261,8.58301 -8.58274,8.58301 -4.74011,0 -8.58274,-3.84276 -8.58274,-8.58301 0,-4.74027 3.84263,-8.58302 8.58274,-8.58302 4.74013,0 8.58274,3.84275 8.58274,8.58302 z"
       id="path6587"
       inkscape:connector-curvature="0" />
    <path
       style="fill:none;stroke:#000000;stroke-width:0.10629921;stroke-miterlimit:4;stroke-opacity:1"
       inkscape:transform-center-x="-8.6476013"
       inkscape:transform-center-y="-105.13357"
       d="m 292.43736,421.69912 c 0,4.74026 -3.84261,8.58301 -8.58274,8.58301 -4.74011,0 -8.58274,-3.84275 -8.58274,-8.58301 0,-4.74027 3.84263,-8.58302 8.58274,-8.58302 4.74013,0 8.58274,3.84275 8.58274,8.58302 z"
       id="path6589"
       inkscape:connector-curvature="0" />
    <path
       style="fill:none;stroke:#000000;stroke-width:0.10629921;stroke-miterlimit:4;stroke-opacity:1"
       inkscape:transform-center-x="-8.6476013"
       inkscape:transform-center-y="-105.13357"
       d="m 292.43736,279.96712 c 0,4.74025 -3.84261,8.58301 -8.58274,8.58301 -4.74011,0 -8.58274,-3.84276 -8.58274,-8.58301 0,-4.74027 3.84263,-8.58302 8.58274,-8.58302 4.74013,0 8.58274,3.84275 8.58274,8.58302 z"
       id="path6591"
       inkscape:connector-curvature="0" />
    <path
       style="fill:none;stroke:#000000;stroke-width:0.10629921;stroke-miterlimit:4;stroke-opacity:1"
       inkscape:transform-center-x="-8.6476013"
       inkscape:transform-center-y="-105.13357"
       d="m 292.43736,634.29712 c 0,4.74026 -3.84261,8.58301 -8.58274,8.58301 -4.74011,0 -8.58274,-3.84275 -8.58274,-8.58301 0,-4.74026 3.84263,-8.58302 8.58274,-8.58302 4.74013,0 8.58274,3.84276 8.58274,8.58302 z"
       id="path6593"
       inkscape:connector-curvature="0" />
    <path
       style="fill:none;stroke:#000000;stroke-width:0.10629921;stroke-miterlimit:4;stroke-opacity:1"
       inkscape:transform-center-x="-8.6476013"
       inkscape:transform-center-y="-105.13357"
       d="m 292.43736,705.16312 c 0,4.74026 -3.84261,8.58301 -8.58274,8.58301 -4.74011,0 -8.58274,-3.84275 -8.58274,-8.58301 0,-4.74026 3.84263,-8.58302 8.58274,-8.58302 4.74013,0 8.58274,3.84276 8.58274,8.58302 z"
       id="path6595"
       inkscape:connector-curvature="0" />
    <path
       style="fill:none;stroke:#000000;stroke-width:0.10629921;stroke-miterlimit:4;stroke-opacity:1"
       inkscape:transform-center-x="-8.6476013"
       inkscape:transform-center-y="-105.13356"
       d="m 292.43736,776.02912 c 0,4.74026 -3.84261,8.58301 -8.58274,8.58301 -4.74011,0 -8.58274,-3.84275 -8.58274,-8.58301 0,-4.74026 3.84263,-8.58301 8.58274,-8.58301 4.74013,0 8.58274,3.84275 8.58274,8.58301 z"
       id="path6597"
       inkscape:connector-curvature="0" />
    <path
       style="fill:none;stroke:#000000;stroke-width:0.10629921;stroke-miterlimit:4;stroke-opacity:1"
       inkscape:transform-center-x="-8.6476013"
       inkscape:transform-center-y="-105.13356"
       d="m 292.43736,846.89512 c 0,4.74026 -3.84261,8.58301 -8.58274,8.58301 -4.74011,0 -8.58274,-3.84275 -8.58274,-8.58301 0,-4.74026 3.84263,-8.58301 8.58274,-8.58301 4.74013,0 8.58274,3.84275 8.58274,8.58301 z"
       id="path6599"
       inkscape:connector-curvature="0" />
    <path
       style="fill:none;stroke:#000000;stroke-width:0.10629921;stroke-miterlimit:4;stroke-opacity:1"
       inkscape:transform-center-x="-8.6476013"
       inkscape:transform-center-y="-105.13356"
       d="m 292.43736,917.76112 c 0,4.74026 -3.84261,8.58301 -8.58274,8.58301 -4.74011,0 -8.58274,-3.84275 -8.58274,-8.58301 0,-4.74026 3.84263,-8.58301 8.58274,-8.58301 4.74013,0 8.58274,3.84275 8.58274,8.58301 z"
       id="path6601"
       inkscape:connector-curvature="0" />
    <path
       style="fill:none;stroke:#000000;stroke-width:0.10629921;stroke-miterlimit:4;stroke-opacity:1"
       inkscape:transform-center-x="-8.6476215"
       inkscape:transform-center-y="-105.13359"
       d="m 300.73689,57.526269 c 0,4.740264 -3.84262,8.58301 -8.58274,8.58301 -4.74012,0 -8.58274,-3.842746 -8.58274,-8.58301 0,-4.740268 3.84262,-8.583014 8.58274,-8.583014 4.74012,0 8.58274,3.842746 8.58274,8.583014 z"
       id="path6603"
       inkscape:connector-curvature="0" />
    <path
       style="fill:none;stroke:#000000;stroke-width:0.10629921;stroke-miterlimit:4;stroke-opacity:1"
       inkscape:transform-center-x="-8.6476063"
       inkscape:transform-center-y="-105.13357"
       d="m 809.10685,316.15928 c 0,4.74025 -3.84262,8.58301 -8.58275,8.58301 -4.74011,0 -8.58274,-3.84276 -8.58274,-8.58301 0,-4.74027 3.84263,-8.58302 8.58274,-8.58302 4.74013,0 8.58275,3.84275 8.58275,8.58302 z"
       id="path6603-1"
       inkscape:connector-curvature="0" />
    <path
       style="fill:none;stroke:#000000;stroke-width:0.10629922;stroke-miterlimit:4;stroke-opacity:1"
       inkscape:transform-center-x="-8.6476385"
       inkscape:transform-center-y="-105.13361"
       d="m 789.05002,842.40106 c 0,4.74027 -3.84263,8.58302 -8.58275,8.58302 -4.74011,0 -8.58275,-3.84275 -8.58275,-8.58302 0,-4.74027 3.84264,-8.58301 8.58275,-8.58301 4.74012,0 8.58275,3.84274 8.58275,8.58301 z"
       id="path6603-1-6"
       inkscape:connector-curvature="0" />
    <path
       style="fill:none;stroke:#000000;stroke-width:0.10629921;stroke-miterlimit:4;stroke-opacity:1"
       inkscape:transform-center-x="-8.6475963"
       inkscape:transform-center-y="-105.1335"
       d="m 281.39633,1105.3044 c 0,4.7402 -3.84261,8.583 -8.58273,8.583 -4.74011,0 -8.58274,-3.8428 -8.58274,-8.583 0,-4.7403 3.84263,-8.5831 8.58274,-8.5831 4.74012,0 8.58273,3.8428 8.58273,8.5831 z"
       id="path6603-1-6-5"
       inkscape:connector-curvature="0" />
    <path
       style="fill:none;stroke:#000000;stroke-width:0.10629921;stroke-miterlimit:4;stroke-opacity:1"
       inkscape:transform-center-x="-8.6476115"
       inkscape:transform-center-y="-105.13356"
       d="m -229.71515,830.03726 c 0,4.74026 -3.84263,8.58301 -8.58274,8.58301 -4.74012,0 -8.58274,-3.84275 -8.58274,-8.58301 0,-4.74026 3.84262,-8.58302 8.58274,-8.58302 4.74011,0 8.58274,3.84276 8.58274,8.58302 z"
       id="path6603-1-6-5-4"
       inkscape:connector-curvature="0" />
    <path
       style="fill:none;stroke:#000000;stroke-width:0.10629921;stroke-miterlimit:4;stroke-opacity:1"
       inkscape:transform-center-x="-8.6478732"
       inkscape:transform-center-y="-105.1336"
       d="m -217.26535,298.86863 c 0,4.74027 -3.84274,8.58302 -8.58301,8.58302 -4.74026,0 -8.58301,-3.84275 -8.58301,-8.58302 0,-4.74027 3.84275,-8.58301 8.58301,-8.58301 4.74027,0 8.58301,3.84274 8.58301,8.58301 z"
       id="path6603-1-6-5-4-5"
       inkscape:connector-curvature="0" />
    <path
       id="path6805"
       d="m 1065.0953,807.74141 c 0,2.92815 -2.3737,5.3019 -5.3018,5.3019 -2.9281,0 -5.3018,-2.37375 -5.3018,-5.3019 0,-2.92817 2.3737,-5.3019 5.3018,-5.3019 2.9281,0 5.3018,2.37373 5.3018,5.3019 z"
       style="fill:none;stroke:#000000;stroke-width:0.10629921;stroke-miterlimit:10"
       inkscape:connector-curvature="0" />
    <path
       inkscape:connector-curvature="0"
       style="fill:none;stroke:#000000;stroke-width:0.10629921;stroke-miterlimit:10"
       d="m 1238.717,807.74141 c 0,2.92815 -2.3737,5.3019 -5.3018,5.3019 -2.9281,0 -5.3018,-2.37375 -5.3018,-5.3019 0,-2.92817 2.3737,-5.3019 5.3018,-5.3019 2.9281,0 5.3018,2.37373 5.3018,5.3019 z"
       id="path6809" />
    <path
       inkscape:connector-curvature="0"
       style="fill:none;stroke:#000000;stroke-width:0.10629921;stroke-miterlimit:10"
       d="m 1065.0953,914.04041 c 0,2.92815 -2.3737,5.3019 -5.3018,5.3019 -2.9281,0 -5.3018,-2.37375 -5.3018,-5.3019 0,-2.92817 2.3737,-5.3019 5.3018,-5.3019 2.9281,0 5.3018,2.37373 5.3018,5.3019 z"
       id="path6811" />
    <path
       style="fill:none;stroke:#000000;stroke-width:0.10629921;stroke-miterlimit:4;stroke-opacity:1"
       d="m 1058.8463,895.45856 177.1734,0 c 9.7779,0 17.6496,7.87173 17.6496,17.64961 0,9.77789 -7.8717,17.64962 -17.6496,17.64962 l -177.1734,0 c -9.7779,0 -17.6496,-7.87173 -17.6496,-17.64962 0,-9.77788 7.8717,-17.64961 17.6496,-17.64961 z"
       id="rect6813" />
    <path
       id="path6815"
       d="m 1238.717,914.04041 c 0,2.92815 -2.3737,5.3019 -5.3018,5.3019 -2.9281,0 -5.3018,-2.37375 -5.3018,-5.3019 0,-2.92817 2.3737,-5.3019 5.3018,-5.3019 2.9281,0 5.3018,2.37373 5.3018,5.3019 z"
       style="fill:none;stroke:#000000;stroke-width:0.10629921;stroke-miterlimit:10"
       inkscape:connector-curvature="0" />
    <path
       inkscape:connector-curvature="0"
       style="fill:none;stroke:#000000;stroke-width:0.10629921;stroke-miterlimit:10"
       d="m 1065.0953,956.56001 c 0,2.92815 -2.3737,5.3019 -5.3018,5.3019 -2.9281,0 -5.3018,-2.37375 -5.3018,-5.3019 0,-2.92817 2.3737,-5.3019 5.3018,-5.3019 2.9281,0 5.3018,2.37373 5.3018,5.3019 z"
       id="path6817" />
    <path
       style="fill:none;stroke:#000000;stroke-width:0.10629921;stroke-miterlimit:4;stroke-opacity:1"
       d="m 1058.8463,937.97833 177.1734,0 c 9.7779,0 17.6496,7.87173 17.6496,17.64962 0,9.77788 -7.8717,17.64961 -17.6496,17.64961 l -177.1734,0 c -9.7779,0 -17.6496,-7.87173 -17.6496,-17.64961 0,-9.77789 7.8717,-17.64962 17.6496,-17.64962 z"
       id="rect6819" />
    <path
       id="path6821"
       d="m 1238.717,956.56001 c 0,2.92815 -2.3737,5.3019 -5.3018,5.3019 -2.9281,0 -5.3018,-2.37375 -5.3018,-5.3019 0,-2.92817 2.3737,-5.3019 5.3018,-5.3019 2.9281,0 5.3018,2.37373 5.3018,5.3019 z"
       style="fill:none;stroke:#000000;stroke-width:0.10629921;stroke-miterlimit:10"
       inkscape:connector-curvature="0" />
    <g
       style="font-size:40px;font-style:normal;font-weight:normal;line-height:125%;letter-spacing:0px;word-spacing:0px;fill:none;stroke:#ff0000;stroke-width:0.07585219;stroke-miterlimit:4;stroke-opacity:1;font-family:Sans"
       id="text6823"
       transform="matrix(1.4017505,0,0,1.4010482,-121.1604,-230.39772)">
      <path
         d="m 320.48831,556.18573 c -2.03126,3e-5 -3.56121,1.00263 -4.58984,3.00781 -1.01563,1.99221 -1.52345,4.99351 -1.52344,9.00391 -10e-6,3.99741 0.50781,6.9987 1.52344,9.0039 1.02863,1.9922 2.55858,2.98829 4.58984,2.98829 2.04426,0 3.5742,-0.99609 4.58985,-2.98829 1.02862,-2.0052 1.54295,-5.00649 1.54296,-9.0039 -1e-5,-4.0104 -0.51434,-7.0117 -1.54296,-9.00391 -1.01565,-2.00518 -2.54559,-3.00778 -4.58985,-3.00781 m 0,-3.125 c 3.26821,3e-5 5.7617,1.2956 7.48047,3.88672 1.73175,2.57815 2.59763,6.32814 2.59766,11.25 -3e-5,4.90886 -0.86591,8.65886 -2.59766,11.25 -1.71877,2.57812 -4.21226,3.86719 -7.48047,3.86719 -3.26824,0 -5.76823,-1.28907 -7.5,-3.86719 -1.71875,-2.59114 -2.57813,-6.34114 -2.57812,-11.25 -10e-6,-4.92186 0.85937,-8.67185 2.57812,-11.25 1.73177,-2.59112 4.23176,-3.88669 7.5,-3.88672"
         id="path6922"
         inkscape:connector-curvature="0"
         style="stroke-width:0.05412604" />
    </g>
    <g
       style="font-size:40px;font-style:normal;font-weight:normal;line-height:125%;letter-spacing:0px;word-spacing:0px;fill:none;stroke:#ff0000;stroke-width:0.07310188;stroke-miterlimit:4;stroke-opacity:1;font-family:Sans"
       id="text6839"
       transform="matrix(1.4546829,0,0,1.4535655,-116.79819,-227.02617)">
      <path
         d="m 241.86832,505.0191 6.44531,0 0,-22.24609 -7.01172,1.40625 0,-3.59375 6.97266,-1.40625 3.94531,0 0,25.83984 6.44531,0 0,3.32032 -16.79687,0 0,-3.32032"
         id="path6919"
         inkscape:connector-curvature="0"
         style="stroke-width:0.0502721" />
    </g>
    <g
       style="font-size:40px;font-style:normal;font-weight:normal;line-height:125%;letter-spacing:0px;word-spacing:0px;fill:none;stroke:#ff0000;stroke-width:0.07442767;stroke-miterlimit:4;stroke-opacity:1;font-family:Sans"
       id="text6843"
       transform="matrix(1.4286814,0,0,1.427762,-129.64536,-183.59518)">
      <path
         d="m 315.44925,434.15302 13.76953,0 0,3.32031 -18.51562,0 0,-3.32031 c 1.49739,-1.54948 3.53515,-3.6263 6.11328,-6.23047 2.59113,-2.61718 4.21873,-4.30338 4.88281,-5.0586 1.263,-1.41925 2.14191,-2.61717 2.63672,-3.59375 0.50779,-0.98956 0.7617,-1.95961 0.76172,-2.91015 -2e-5,-1.54946 -0.5469,-2.81248 -1.64063,-3.78907 -1.08074,-0.97653 -2.4935,-1.46481 -4.23828,-1.46484 -1.23699,3e-5 -2.54558,0.21487 -3.92578,0.64453 -1.36719,0.42971 -2.83204,1.08076 -4.39453,1.95313 l 0,-3.98438 c 1.58853,-0.63799 3.07291,-1.11976 4.45312,-1.44531 1.3802,-0.32549 2.64322,-0.48825 3.78907,-0.48828 3.02081,3e-5 5.42967,0.75523 7.22656,2.26562 1.79685,1.51045 2.69529,3.52867 2.69531,6.05469 -2e-5,1.19794 -0.22789,2.33726 -0.68359,3.41797 -0.44273,1.06772 -1.25653,2.33074 -2.44141,3.78906 -0.32554,0.37762 -1.36069,1.47137 -3.10547,3.28125 -1.7448,1.79689 -4.20574,4.31641 -7.38281,7.5586"
         id="path6916"
         inkscape:connector-curvature="0"
         style="stroke-width:0.05211213" />
    </g>
    <g
       style="font-size:40px;font-style:normal;font-weight:normal;line-height:125%;letter-spacing:0px;word-spacing:0px;fill:none;stroke:#ff0000;stroke-width:0.07584935;stroke-miterlimit:4;stroke-opacity:1;font-family:Sans"
       id="text6847"
       transform="matrix(1.4018554,0,0,1.4010482,-103.50975,-143.71477)">
      <path
         d="m 253.13785,350.88458 c 1.888,0.40366 3.35935,1.24351 4.41406,2.51953 1.06769,1.27606 1.60154,2.85158 1.60156,4.72657 -2e-5,2.87761 -0.9896,5.10417 -2.96875,6.67968 -1.97918,1.57552 -4.79168,2.36328 -8.4375,2.36329 -1.22397,-1e-5 -2.48698,-0.1237 -3.78906,-0.3711 -1.28907,-0.23437 -2.6237,-0.59245 -4.00391,-1.07422 l 0,-3.80859 c 1.09375,0.63802 2.29167,1.11979 3.59375,1.44531 1.30208,0.32553 2.66276,0.48829 4.08204,0.48828 2.47394,10e-6 4.35545,-0.48828 5.64453,-1.46484 1.30206,-0.97656 1.9531,-2.39583 1.95312,-4.25781 -2e-5,-1.71874 -0.60548,-3.05989 -1.8164,-4.02344 -1.19794,-0.97655 -2.87111,-1.46483 -5.01954,-1.46484 l -3.39843,0 0,-3.24219 3.55468,0 c 1.94009,10e-6 3.42447,-0.3841 4.45313,-1.15235 1.02863,-0.78123 1.54295,-1.90102 1.54297,-3.35937 -2e-5,-1.49737 -0.53387,-2.64321 -1.60156,-3.4375 -1.05471,-0.80727 -2.57163,-1.21091 -4.55079,-1.21094 -1.08074,3e-5 -2.23959,0.11722 -3.47656,0.35156 -1.23698,0.2344 -2.59766,0.59899 -4.08203,1.09375 l 0,-3.51562 c 1.49739,-0.41664 2.89713,-0.72914 4.19922,-0.9375 1.31509,-0.2083 2.55207,-0.31247 3.71094,-0.3125 2.99477,3e-5 5.36456,0.68362 7.10937,2.05078 1.74477,1.35419 2.61717,3.19013 2.61719,5.50781 -2e-5,1.61461 -0.46226,2.98179 -1.38672,4.10157 -0.9245,1.10678 -2.2396,1.87501 -3.94531,2.30468"
         id="path6913"
         inkscape:connector-curvature="0"
         style="stroke-width:0.05412199" />
    </g>
    <g
       style="font-size:40px;font-style:normal;font-weight:normal;line-height:125%;letter-spacing:0px;word-spacing:0px;fill:none;stroke:#ff0000;stroke-width:0.07311457;stroke-miterlimit:4;stroke-opacity:1;font-family:Sans"
       id="text6851"
       transform="matrix(1.4541778,0,0,1.4535655,-128.42751,-130.59893)">
      <path
         d="m 319.34735,270.01849 -9.96094,15.56641 9.96094,0 0,-15.56641 m -1.03516,-3.4375 4.96094,0 0,19.00391 4.16016,0 0,3.28125 -4.16016,0 0,6.875 -3.92578,0 0,-6.875 -13.16406,0 0,-3.80859 12.1289,-18.47657"
         id="path6910"
         inkscape:connector-curvature="0"
         style="stroke-width:0.05028957" />
    </g>
    <g
       style="font-size:40px;font-style:normal;font-weight:normal;line-height:125%;letter-spacing:0px;word-spacing:0px;fill:none;stroke:#ff0000;stroke-width:0.07456636;stroke-miterlimit:4;stroke-opacity:1;font-family:Sans"
       id="text6855"
       transform="matrix(1.4252435,0,0,1.4258872,-116.30736,-87.420962)">
      <path
         d="m 216.42065,192.1716 15.48829,0 0,3.32031 -11.875,0 0,7.14844 c 0.5729,-0.19529 1.14582,-0.33852 1.71875,-0.42969 0.5729,-0.10414 1.14582,-0.15623 1.71875,-0.15625 3.25519,2e-5 5.83331,0.89195 7.73437,2.67578 1.90102,1.78387 2.85154,4.19924 2.85156,7.2461 -2e-5,3.13802 -0.97658,5.57943 -2.92968,7.32422 -1.95315,1.73177 -4.70705,2.59765 -8.26172,2.59765 -1.22397,0 -2.47397,-0.10416 -3.75,-0.3125 -1.26303,-0.20833 -2.57162,-0.52083 -3.92578,-0.9375 l 0,-3.96484 c 1.17187,0.63802 2.3828,1.11328 3.63281,1.42578 1.24999,0.3125 2.5716,0.46875 3.96484,0.46875 2.25259,0 4.03645,-0.59244 5.35156,-1.77734 1.31509,-1.18489 1.97264,-2.79296 1.97266,-4.82422 -2e-5,-2.03124 -0.65757,-3.63931 -1.97266,-4.82422 -1.31511,-1.18488 -3.09897,-1.77733 -5.35156,-1.77734 -1.0547,1e-5 -2.10938,0.1172 -3.16406,0.35156 -1.04167,0.23439 -2.10938,0.59897 -3.20313,1.09375 l 0,-14.64844"
         id="path6905"
         inkscape:connector-curvature="0"
         style="stroke-width:0.05230652" />
      <path
         d="m 255.97144,196.25363 0,10.87891 10.8789,0 0,3.32031 -10.8789,0 0,10.87891 -3.28125,0 0,-10.87891 -10.87891,0 0,-3.32031 10.87891,0 0,-10.87891 3.28125,0"
         id="path6907"
         inkscape:connector-curvature="0"
         style="stroke-width:0.05230652" />
    </g>
    <g
       style="font-size:40px;font-style:normal;font-weight:normal;line-height:125%;letter-spacing:0px;word-spacing:0px;fill:none;stroke:#ff0000;stroke-width:0.07313614;stroke-miterlimit:4;stroke-opacity:1;font-family:Sans"
       id="text6859"
       transform="matrix(1.4533207,0,0,1.4535655,-114.0873,-291.31089)">
      <path
         d="m 228.23059,637.51276 10.52734,0 0,3.20312 -10.52734,0 0,-3.20312"
         id="path6900"
         inkscape:connector-curvature="0"
         style="stroke-width:0.05031923" />
      <path
         d="m 245.69153,646.75104 6.44531,0 0,-22.2461 -7.01172,1.40625 0,-3.59375 6.97266,-1.40625 3.94531,0 0,25.83985 6.44531,0 0,3.32031 -16.79687,0 0,-3.32031"
         id="path6902"
         inkscape:connector-curvature="0"
         style="stroke-width:0.05031923" />
    </g>
    <g
       style="font-size:40px;font-style:normal;font-weight:normal;line-height:125%;letter-spacing:0px;word-spacing:0px;fill:none;stroke:#ff0000;stroke-width:0.07445661;stroke-miterlimit:4;stroke-opacity:1;font-family:Sans"
       id="text6863"
       transform="matrix(1.4275708,0,0,1.427762,-128.88273,-304.85032)">
      <path
         d="m 309.72653,708.37872 10.52735,0 0,3.20313 -10.52735,0 0,-3.20313"
         id="path6895"
         inkscape:connector-curvature="0"
         style="stroke-width:0.05215267" />
      <path
         d="m 329.90231,717.617 13.76953,0 0,3.32032 -18.51562,0 0,-3.32032 c 1.49739,-1.54947 3.53515,-3.62629 6.11328,-6.23046 2.59113,-2.61718 4.21874,-4.30338 4.88281,-5.0586 1.26301,-1.41925 2.14191,-2.61717 2.63672,-3.59375 0.5078,-0.98956 0.7617,-1.95961 0.76172,-2.91015 -2e-5,-1.54946 -0.54689,-2.81248 -1.64062,-3.78907 -1.08075,-0.97653 -2.49351,-1.46481 -4.23829,-1.46484 -1.23698,3e-5 -2.54558,0.21487 -3.92578,0.64453 -1.36719,0.42971 -2.83203,1.08075 -4.39453,1.95313 l 0,-3.98438 c 1.58854,-0.63799 3.07291,-1.11976 4.45313,-1.44531 1.3802,-0.32549 2.64322,-0.48825 3.78906,-0.48828 3.02082,3e-5 5.42967,0.75523 7.22656,2.26562 1.79686,1.51044 2.69529,3.52867 2.69531,6.05469 -2e-5,1.19794 -0.22788,2.33726 -0.68359,3.41797 -0.44273,1.06772 -1.25653,2.33074 -2.44141,3.78906 -0.32553,0.37762 -1.36069,1.47137 -3.10546,3.28125 -1.74481,1.79688 -4.20574,4.31641 -7.38282,7.55859"
         id="path6897"
         inkscape:connector-curvature="0"
         style="stroke-width:0.05215267" />
    </g>
    <g
       style="font-size:40px;font-style:normal;font-weight:normal;line-height:125%;letter-spacing:0px;word-spacing:0px;fill:none;stroke:#ff0000;stroke-width:0.07587611;stroke-miterlimit:4;stroke-opacity:1;font-family:Sans"
       id="text6867"
       transform="matrix(1.4008668,0,0,1.4010482,-102.11623,-314.23886)">
      <path
         d="m 228.23059,779.24469 10.52734,0 0,3.20312 -10.52734,0 0,-3.20312"
         id="path6890"
         inkscape:connector-curvature="0"
         style="stroke-width:0.05416018" />
      <path
         d="m 256.96106,776.08063 c 1.888,0.40366 3.35935,1.2435 4.41406,2.51953 1.06769,1.27605 1.60154,2.85157 1.60156,4.72656 -2e-5,2.87761 -0.9896,5.10417 -2.96875,6.67969 -1.97918,1.57552 -4.79168,2.36328 -8.4375,2.36328 -1.22396,0 -2.48698,-0.1237 -3.78906,-0.37109 -1.28907,-0.23438 -2.6237,-0.59245 -4.0039,-1.07422 l 0,-3.8086 c 1.09374,0.63803 2.29166,1.1198 3.59375,1.44532 1.30207,0.32552 2.66275,0.48828 4.08203,0.48828 2.47394,0 4.35545,-0.48828 5.64453,-1.46485 1.30206,-0.97655 1.9531,-2.39582 1.95312,-4.25781 -2e-5,-1.71874 -0.60548,-3.05988 -1.8164,-4.02344 -1.19793,-0.97655 -2.87111,-1.46483 -5.01953,-1.46484 l -3.39844,0 0,-3.24219 3.55469,0 c 1.94009,2e-5 3.42446,-0.38409 4.45312,-1.15234 1.02863,-0.78123 1.54295,-1.90102 1.54297,-3.35938 -2e-5,-1.49737 -0.53387,-2.6432 -1.60156,-3.4375 -1.05471,-0.80726 -2.57163,-1.21091 -4.55078,-1.21093 -1.08074,2e-5 -2.2396,0.11721 -3.47657,0.35156 -1.23698,0.2344 -2.59766,0.59898 -4.08203,1.09375 l 0,-3.51563 c 1.49739,-0.41663 2.89713,-0.72913 4.19922,-0.9375 1.3151,-0.2083 2.55207,-0.31247 3.71094,-0.3125 2.99478,3e-5 5.36456,0.68363 7.10937,2.05078 1.74477,1.3542 2.61717,3.19013 2.61719,5.50782 -2e-5,1.6146 -0.46226,2.98179 -1.38672,4.10156 -0.9245,1.10679 -2.2396,1.87502 -3.94531,2.30469"
         id="path6892"
         inkscape:connector-curvature="0"
         style="stroke-width:0.05416018" />
    </g>
    <g
       style="font-size:40px;font-style:normal;font-weight:normal;line-height:125%;letter-spacing:0px;word-spacing:0px;fill:none;stroke:#ff0000;stroke-width:0.07313756;stroke-miterlimit:4;stroke-opacity:1;font-family:Sans"
       id="text6871"
       transform="matrix(1.453264,0,0,1.4535655,-140.38364,-387.73796)">
      <path
         d="m 309.72653,850.11066 10.52735,0 0,3.20312 -10.52735,0 0,-3.20312"
         id="path6885"
         inkscape:connector-curvature="0"
         style="stroke-width:0.05032119" />
      <path
         d="m 337.34372,836.94659 -9.96094,15.56641 9.96094,0 0,-15.56641 m -1.03516,-3.4375 4.96094,0 0,19.00391 4.16016,0 0,3.28125 -4.16016,0 0,6.875 -3.92578,0 0,-6.875 -13.16406,0 0,-3.80859 12.1289,-18.47657"
         id="path6887"
         inkscape:connector-curvature="0"
         style="stroke-width:0.05032119" />
    </g>
    <g
       style="font-size:40px;font-style:normal;font-weight:normal;line-height:125%;letter-spacing:0px;word-spacing:0px;fill:none;stroke:#ff0000;stroke-width:0.07455496;stroke-miterlimit:4;stroke-opacity:1;font-family:Sans"
       id="text6875"
       transform="matrix(1.4256792,0,0,1.4258872,-111.32224,-390.73928)">
      <path
         d="m 228.23059,920.97662 10.52734,0 0,3.20313 -10.52734,0 0,-3.20313"
         id="path6880"
         inkscape:connector-curvature="0"
         style="stroke-width:0.05229053" />
      <path
         d="m 245.047,904.37506 15.48828,0 0,3.32031 -11.875,0 0,7.14844 c 0.57291,-0.19529 1.14582,-0.33852 1.71875,-0.42969 0.5729,-0.10414 1.14582,-0.15623 1.71875,-0.15625 3.25519,2e-5 5.83331,0.89195 7.73437,2.67578 1.90102,1.78387 2.85154,4.19924 2.85157,7.2461 -3e-5,3.13803 -0.97659,5.57943 -2.92969,7.32422 -1.95314,1.73177 -4.70705,2.59765 -8.26172,2.59765 -1.22397,0 -2.47397,-0.10416 -3.75,-0.3125 -1.26303,-0.20833 -2.57162,-0.52083 -3.92578,-0.9375 l 0,-3.96484 c 1.17187,0.63802 2.38281,1.11328 3.63281,1.42578 1.24999,0.3125 2.57161,0.46875 3.96484,0.46875 2.2526,0 4.03645,-0.59244 5.35157,-1.77734 1.31508,-1.18489 1.97264,-2.79296 1.97265,-4.82422 -1e-5,-2.03124 -0.65757,-3.63931 -1.97265,-4.82422 -1.31512,-1.18488 -3.09897,-1.77733 -5.35157,-1.77734 -1.05469,1e-5 -2.10938,0.1172 -3.16406,0.35156 -1.04167,0.23439 -2.10938,0.59897 -3.20312,1.09375 l 0,-14.64844"
         id="path6882"
         inkscape:connector-curvature="0"
         style="stroke-width:0.05229053" />
    </g>
  </g>
</svg>
